# xmcd
#
# Track frame offsets:
#	150
#	18975
#	36485
#	55590
#	74210
#	93350
#	113060
#	129272
#	144702
#	164502
#	183130
#	202732
#	222255
#
# Disc length: 3235 seconds
#
# Revision: 8
# Processed by: cddbd v1.5.2PL0 Copyright (c) Steve Scherf et al.
# Submitted via: EasyCDDAExtractor 15.3.0.1
#
DISCID=b80ca10d
DTITLE=Alejandro Fernandez - A Corazon Abierto
DYEAR=2004
DGENRE=Latin
TTITLE0=Para Vivir
TTITLE1=Me Dedique A Perderte
TTITLE2=Canta Corazon
TTITLE3=Que Voy A Hacer Con Mi Amor
TTITLE4=Si Alguna Vez
TTITLE5=Que Lastima
TTITLE6=Tengo Ganas
TTITLE7=Se Va
TTITLE8=Lo Que Pudo Ser
TTITLE9=Me Ire
TTITLE10=Dame Un Minuto
TTITLE11=Muy Lejos De Ti
TTITLE12=Me Dedique A Perderte (Version Salsa)
EXTD=
EXTT0=
EXTT1=
EXTT2=
EXTT3=
EXTT4=
EXTT5=
EXTT6=
EXTT7=
EXTT8=
EXTT9=
EXTT10=
EXTT11=
EXTT12=
PLAYORDER=
